<svg xmlns="http://www.w3.org/2000/svg" viewBox="0 0 161 347.75"><defs><style>.cls-1,.cls-5{fill:#f9f9f5;}.cls-1{stroke:#f9f9f5;}.cls-1,.cls-7{stroke-miterlimit:10;}.cls-2{fill:#6d6d6d;}.cls-3{fill:#5b5b5b;}.cls-4{fill:#7a7a7a;}.cls-6{fill:#6d6d6d;}.cls-7{fill:#fff;stroke:#939393;}.cls-8{font-size:9.57px;fill:#262626;font-family:Raleway-ExtraLight, Raleway ExtraLight;font-weight:200;}</style></defs><title>Asset 14</title><g id="Layer_2" data-name="Layer 2"><g id="Layer_1-2" data-name="Layer 1"><path class="cls-1" d="M80.46,134.5c.17,0,.4,6.77.28,13.85-.1,5.6-.13,5.82-.28,5.79s-.37-4.87-.35-6.53C80.12,146.29,80.25,134.55,80.46,134.5Z"/><path class="cls-1" d="M89.67,125.49c.1.24-3,4.09-6.3,7.51-2.66,2.71-2.79,2.77-2.85,2.52s2.08-3.07,2.87-3.89C84,131,89.55,125.17,89.67,125.49Z"/><path class="cls-1" d="M80.62,136c-.07.27-3.26-3.17-6.38-7.3-2.47-3.28-2.55-3.46-2.45-3.66s2.39,2.15,3.13,3.1C75.51,128.89,80.72,135.64,80.62,136Z"/><ellipse class="cls-1" cx="80.55" cy="135.52" rx="1.65" ry="3.05"/><rect class="cls-1" x="68.53" y="134.43" width="24.04" height="1.97"/><path class="cls-1" d="M80.46,191.84c.17,0,.4,6.76.28,13.84-.1,5.6-.13,5.82-.28,5.79s-.37-4.87-.35-6.52C80.12,203.63,80.25,191.88,80.46,191.84Z"/><path class="cls-1" d="M89.67,182.82c.1.24-3,4.09-6.3,7.51-2.66,2.72-2.79,2.77-2.85,2.52s2.08-3.07,2.87-3.89C84,188.31,89.55,182.5,89.67,182.82Z"/><path class="cls-1" d="M80.62,193.32c-.07.27-3.26-3.17-6.38-7.3-2.47-3.27-2.55-3.46-2.45-3.66s2.39,2.15,3.13,3.1C75.51,186.22,80.72,193,80.62,193.32Z"/><ellipse class="cls-1" cx="80.55" cy="192.85" rx="1.65" ry="3.05"/><rect class="cls-1" x="68.53" y="191.76" width="24.04" height="1.97"/><path class="cls-1" d="M80.46,249.17c.17,0,.4,6.76.28,13.84-.1,5.6-.13,5.83-.28,5.79s-.37-4.86-.35-6.52C80.12,261,80.25,249.21,80.46,249.17Z"/><path class="cls-1" d="M89.67,240.15c.1.25-3,4.09-6.3,7.52-2.66,2.71-2.79,2.76-2.85,2.51s2.08-3.07,2.87-3.89C84,245.64,89.55,239.84,89.67,240.15Z"/><path class="cls-1" d="M80.62,250.65c-.07.27-3.26-3.16-6.38-7.3-2.47-3.27-2.55-3.45-2.45-3.66s2.39,2.15,3.13,3.11C75.51,243.55,80.72,250.3,80.62,250.65Z"/><ellipse class="cls-1" cx="80.55" cy="250.18" rx="1.65" ry="3.05"/><rect class="cls-1" x="68.53" y="249.09" width="24.04" height="1.97"/><path class="cls-2" d="M68.78,347.75H0C0,232,68.78,0,68.78,0Z"/><path class="cls-3" d="M68.78,347.75H0C16.23,282.24,58.71,149.72,68.78,0h0Z"/><path class="cls-4" d="M92.22,347.75H161C161,232,92.22,0,92.22,0Z"/><path class="cls-3" d="M92.22,347.75H161C144.77,282.24,102.29,149.72,92.22,0h0Z"/><path class="cls-5" d="M101.39,287.6h29q-1.37-4.16-2.75-8.46H101.39Z"/><path class="cls-6" d="M101.39,266.92h22.43c-.85-2.78-1.68-5.6-2.51-8.45H101.39Z"/><path class="cls-6" d="M101.39,277.26H127q-1.32-4.15-2.63-8.46h-23Z"/><path class="cls-5" d="M101.39,297.94h32.46q-1.42-4.14-2.86-8.46h-29.6Z"/><path class="cls-5" d="M101.39,308.28h36c-1-2.75-2-5.57-2.94-8.46h-33.1Z"/><path class="cls-5" d="M101.39,339.29h47.05c-.93-2.67-1.93-5.49-3-8.45H101.39Z"/><path class="cls-5" d="M101.39,329h43.4c-1-2.71-2-5.54-3-8.46H101.39Z"/><path class="cls-5" d="M101.39,256.59h19.38q-1.2-4.18-2.37-8.46h-17Z"/><path class="cls-5" d="M101.39,318.62h39.7c-1-2.74-2-5.56-3-8.46h-36.7Z"/><path class="cls-5" d="M101.39,184.22h3.27q-.64-4.22-1.2-8.46h-2.07Z"/><path class="cls-5" d="M112.67,225.57c-.72-3.09-1.43-6.21-2.11-9.35v.89h-9.17v8.46Z"/><path class="cls-5" d="M103.22,173.88q-1.06-8.31-1.83-16.75v16.75Z"/><path class="cls-5" d="M149.1,340.17H101.39v6.58h49.93C150.64,344.68,149.89,342.48,149.1,340.17Z"/><path class="cls-5" d="M110.35,215.23q-.9-4.2-1.75-8.46h-7.21v8.46Z"/><path class="cls-5" d="M106.33,194.55q-.72-4.2-1.38-8.46h-3.56v8.46Z"/><path class="cls-5" d="M101.39,235.91h13.79q-1.05-4.18-2.07-8.46H101.39Z"/><path class="cls-5" d="M108.24,204.89q-.83-4.2-1.57-8.46h-5.28v8.46Z"/><path class="cls-5" d="M101.39,246.25h16.5q-1.14-4.19-2.23-8.46H101.39Z"/><path class="cls-5" d="M59.61,287.6H26.19q1.59-4.16,3.17-8.46H59.61Z"/><path class="cls-5" d="M59.61,266.92H33.75c1-2.78,1.94-5.6,2.89-8.45h23Z"/><path class="cls-5" d="M59.61,277.26H30.05q1.53-4.15,3-8.46H59.61Z"/><path class="cls-5" d="M59.61,297.94H22.18q1.63-4.14,3.29-8.46H59.61Z"/><path class="cls-5" d="M59.61,308.28H18.05q1.68-4.12,3.39-8.46H59.61Z"/><path class="cls-5" d="M59.61,339.29H5.35q1.62-4,3.45-8.45H59.61Z"/><path class="cls-5" d="M59.61,329h-50c1.12-2.71,2.28-5.54,3.49-8.46H59.61Z"/><path class="cls-5" d="M59.61,256.59H37.27q1.38-4.18,2.73-8.46H59.61Z"/><path class="cls-5" d="M59.61,318.62H13.83q1.7-4.11,3.46-8.46H59.61Z"/><path class="cls-5" d="M59.61,184.22H55.84q.73-4.22,1.39-8.46h2.38Z"/><path class="cls-5" d="M46.61,225.57q1.24-4.63,2.43-9.35v.89H59.61v8.46Z"/><path class="cls-5" d="M57.5,173.88q.77-5.12,1.39-10.29c.08-.69.72-.6.72.11v10.18Z"/><path class="cls-5" d="M4.6,340.17h55v6.58H2C2.82,344.68,3.68,342.48,4.6,340.17Z"/><path class="cls-5" d="M49.28,215.23q1-4.2,2-8.46h8.32v8.46Z"/><path class="cls-5" d="M53.91,194.55q.84-4.2,1.6-8.46h4.1v8.46Z"/><path class="cls-5" d="M59.61,235.91H43.7q1.23-4.18,2.4-8.46H59.61Z"/><path class="cls-5" d="M51.72,204.89c.62-2.8,1.23-5.62,1.81-8.46h6.08v8.46Z"/><path class="cls-5" d="M59.61,246.25h-19q1.3-4.19,2.56-8.46H59.61Z"/><circle class="cls-7" cx="122.49" cy="269.52" r="25.51"/><text class="cls-8" transform="translate(106.09 272.09)">Bahrain</text></g></g></svg>