<svg xmlns="http://www.w3.org/2000/svg" viewBox="0 0 74 361.91"><defs><style>.cls-1,.cls-4,.cls-5,.cls-7{fill:#262626;}.cls-1{stroke:#f9f9f5;}.cls-1,.cls-5,.cls-6{stroke-miterlimit:10;}.cls-2{fill:#bcbcbc;}.cls-3{fill:#fff;}.cls-5{stroke:#fff;}.cls-6{fill:none;stroke:#ccc;}.cls-7{font-size:10.41px;font-family:Raleway-ExtraLight, Raleway ExtraLight;font-weight:200;}</style></defs><title>Asset 16</title><g id="Layer_2" data-name="Layer 2"><g id="Layer_1-2" data-name="Layer 1"><rect class="cls-1" x="5.11" y="150.74" width="62.78" height="210.67"/><rect class="cls-2" x="11.84" y="158.97" width="2.69" height="198.33"/><rect class="cls-2" x="21.26" y="158.97" width="2.69" height="198.33"/><rect class="cls-2" x="30.67" y="158.97" width="2.69" height="198.33"/><rect class="cls-2" x="40.09" y="158.97" width="2.69" height="198.33"/><rect class="cls-2" x="49.51" y="158.97" width="2.69" height="198.33"/><rect class="cls-2" x="58.92" y="158.97" width="2.69" height="198.33"/><rect class="cls-1" x="3.77" y="209.77" width="65.92" height="18.52" rx="4.14"/><rect class="cls-1" x="3.77" y="285.59" width="65.92" height="18.52" rx="4.14"/><rect class="cls-1" x="0.5" y="78.05" width="73" height="73" rx="9.09"/><circle class="cls-3" cx="36.74" cy="114.29" r="24.68"/><rect class="cls-4" x="34.11" y="99.58" width="3.69" height="18.91"/><rect class="cls-4" x="44.03" y="108.57" width="3.69" height="16.14" transform="translate(162.51 70.77) rotate(90)"/><polygon class="cls-1" points="65.33 76.96 8.67 76.96 19.57 50.81 54.43 50.81 65.33 76.96"/><rect class="cls-5" x="19.57" y="35.83" width="34.87" height="14.98"/><rect class="cls-6" x="6.49" y="84.04" width="61.56" height="61.56" rx="12.39"/><path class="cls-1" d="M37.53,0A46.12,46.12,0,0,1,31.61,20,70.18,70.18,0,0,1,20,35.27H54.1A75,75,0,0,1,43.44,20,52.43,52.43,0,0,1,37.53,0Z"/><circle class="cls-3" cx="37.04" cy="256.61" r="23.69"/><text class="cls-7" transform="translate(18.57 260.47)">London</text></g></g></svg>