<svg xmlns="http://www.w3.org/2000/svg" viewBox="0 0 103 425.77"><defs><style>.cls-1,.cls-3{fill:#262626;}.cls-1{stroke:#fdffff;stroke-miterlimit:10;stroke-width:3px;}.cls-2{fill:#fff;}.cls-3{font-size:13.27px;font-family:Raleway-ExtraLight, Raleway ExtraLight;font-weight:200;opacity:0.96;}</style></defs><title>Asset 6</title><g id="Layer_2" data-name="Layer 2"><g id="Layer_1-2" data-name="Layer 1"><rect class="cls-1" x="19.62" y="143.49" width="65.45" height="280.43"/><polygon class="cls-1" points="73.74 128.9 73.74 113.95 70.18 113.95 70.18 103.28 35.31 103.28 35.31 113.95 31.04 113.95 31.04 128.9 27.48 128.9 27.48 143.85 77.3 143.85 77.3 128.9 73.74 128.9"/><path class="cls-1" d="M56.73,68.44v-14a3.24,3.24,0,0,0-3.24-3.24h-.82V1.5h-1V51.2h-.81a3.25,3.25,0,0,0-3.25,3.24v14l-3,34.48H59.77Z"/><rect class="cls-1" x="7.19" y="247.06" width="29.59" height="176.86"/><rect class="cls-1" x="66.27" y="247.06" width="29.59" height="176.86"/><rect class="cls-1" x="1.5" y="360.57" width="40.57" height="63.35"/><rect class="cls-1" x="60.93" y="360.93" width="40.57" height="63.35"/><circle class="cls-2" cx="52.5" cy="189.77" r="22"/><text class="cls-3" transform="translate(38.99 193.99)">NYC</text></g></g></svg>